<?xml version="1.0" encoding="UTF-8"?>
<svg width="155px" height="34px" viewBox="0 0 155 34" version="1.1" xmlns="http://www.w3.org/2000/svg" xmlns:xlink="http://www.w3.org/1999/xlink">
    <!-- Generator: Sketch 53.2 (72643) - https://sketchapp.com -->
    <title>лого</title>
    <desc>Created with Sketch.</desc>
    <g id="Page-1" stroke="none" stroke-width="1" fill="none" fill-rule="evenodd">
        <g id="Умназия_рассылка_подтверждение-пробного-урока_MVP" transform="translate(-20.000000, -18.000000)" fill="#FFFFFF" fill-rule="nonzero">
            <g id="шапка">
                <g id="лого" transform="translate(20.000000, 18.000000)">
                    <g id="Group">
                        <g transform="translate(44.000000, 5.000000)" id="Shape">
                            <path d="M11.9,0.6 L9.8,0.6 C9.4,0.6 9.1,0.9 9,1.2 L6.7,11.2 C6.7,11.4 6.6,11.5 6.6,11.5 C6.6,11.5 6.5,11.4 6.4,11.2 L4,1.3 C3.9,0.9 3.6,0.7 3.2,0.7 L1,0.7 C0.6,0.7 0.4,1 0.5,1.3 L5,16.5 C5,16.5 5.1,18.3 4.1,18.9 C3.8,19.1 3.1,19.3 2.3,19.2 C1.8,19.1 1.5,19.5 1.5,19.8 L1.5,21.3 C1.5,21.7 1.8,22 2.2,21.9 L2.7,21.9 C2.7,21.9 4.4,21.9 4.9,21.8 C5.3,21.7 5.9,21.5 6.3,21.1 C6.7,20.8 7.1,20.3 7.4,19.6 C7.8,18.9 8.1,18 8.4,16.9 L9.5,12.6 L12.4,1.3 C12.5,0.9 12.3,0.6 11.9,0.6 Z"></path>
                            <path d="M29.9,0.6 L28.1,0.6 C27.7,0.6 27.3,0.9 27.2,1.2 L23.8,10.3 C23.7,10.5 23.6,10.5 23.6,10.3 L20.2,1.2 C20.1,0.9 19.7,0.6 19.3,0.6 L17.4,0.6 C17,0.6 16.7,0.9 16.7,1.3 L16.7,6 L16.7,6.2 L16.7,21 C16.7,21.4 17,21.7 17.4,21.7 L19.4,21.7 C19.8,21.7 20.1,21.4 20.1,21.1 L20.1,9.1 C20.1,8.9 20.1,8.8 20.2,8.8 C20.2,8.8 20.3,8.9 20.4,9.1 L23.3,16.8 C23.4,17 23.6,17.1 23.7,17.1 L23.7,17.1 C23.9,17.1 24.1,17 24.1,16.8 L27,9.1 C27.1,8.9 27.1,8.8 27.2,8.8 C27.3,8.8 27.3,8.9 27.3,9.1 L27.3,21 C27.3,21.4 27.6,21.7 28,21.7 L30,21.7 C30.4,21.7 30.7,21.4 30.7,21 L30.7,5.8 L30.7,5.7 L30.7,1.3 C30.6,0.9 30.3,0.6 29.9,0.6 Z"></path>
                            <path d="M46.3,0.6 L44.3,0.6 C43.9,0.6 43.6,0.9 43.6,1.3 L43.6,9.1 C43.6,9.3 43.5,9.4 43.3,9.4 L40.2,9.4 C40,9.4 39.9,9.3 39.9,9.1 L39.9,1.3 C39.9,0.9 39.6,0.6 39.2,0.6 L37.2,0.6 C36.8,0.6 36.5,0.9 36.5,1.3 L36.5,21 C36.5,21.4 36.8,21.7 37.2,21.7 L39.2,21.7 C39.6,21.7 39.9,21.4 39.9,21 L39.9,12.8 C39.9,12.6 40,12.5 40.2,12.5 L43.3,12.5 C43.5,12.5 43.6,12.6 43.6,12.8 L43.6,21 C43.6,21.4 43.9,21.7 44.3,21.7 L46.3,21.7 C46.7,21.7 47,21.4 47,21 L47,1.3 C46.9,0.9 46.6,0.6 46.3,0.6 Z"></path>
                            <path d="M59,0.6 L56.7,0.6 C56.3,0.6 56,0.9 55.9,1.2 L55.2,4.7 L52,21 C51.9,21.4 52.2,21.6 52.5,21.6 L54.5,21.6 C54.9,21.6 55.2,21.3 55.3,21 L55.9,17.6 C55.9,17.4 56.1,17.3 56.3,17.3 L59.5,17.3 C59.7,17.3 59.9,17.4 59.9,17.6 L60.5,21 C60.6,21.4 60.9,21.6 61.3,21.6 L63.3,21.6 C63.7,21.6 63.9,21.3 63.8,21 L59.8,1.2 C59.8,0.9 59.4,0.6 59,0.6 Z M59,14.2 L56.8,14.2 C56.6,14.2 56.5,14.1 56.5,13.9 L56.9,11.5 L56.9,11.5 C56.9,11.5 57.1,10.5 57.2,9.9 C57.4,8.5 57.8,5.9 57.8,5.9 C57.8,5.7 57.9,5.6 57.9,5.6 C57.9,5.6 58,5.7 58,5.9 L58.9,11.6 L59.3,14 C59.3,14.1 59.2,14.2 59,14.2 Z"></path>
                            <path d="M77.1,12.7 C77,12.3 76.8,11.9 76.5,11.6 C76.3,11.3 76,11 75.6,10.8 L75.6,10.7 C76,10.5 76.3,10.2 76.5,9.8 C76.7,9.4 76.9,9 77,8.5 C77.1,8 77.2,7.6 77.3,7.2 C77.3,6.8 77.4,6.4 77.4,6 C77.4,5.4 77.3,4.9 77.2,4.3 C76.7,1.7 75.1,0.3 72.3,0.3 C70.8,0.3 69.6,0.7 68.7,1.6 C68.2,2.1 67.7,3.1 67.5,3.9 C67.3,4.7 67.2,5.3 67.2,5.3 C67.2,5.7 67.5,6 67.8,6 L69.6,6 C70,6 70.3,5.7 70.4,5.4 C70.4,5.4 70.5,4.6 70.7,4.2 C70.9,3.8 71.5,3.5 72.1,3.5 C72.7,3.5 73.2,3.7 73.5,4.2 C73.5,4.2 73.6,4.3 73.6,4.3 C73.9,4.7 74,5.3 74,6.1 C74,7.1 73.9,7.9 73.6,8.4 C73.3,9 72.8,9.3 72.2,9.3 L72.1,9.3 L71.5,9.3 C71.1,9.3 70.8,9.6 70.8,10 L70.8,11.5 C70.8,11.9 71.1,12.2 71.5,12.2 L72.1,12.2 L72.1,12.2 C73.3,12.2 73.9,13.3 73.9,15.4 C73.9,16.5 73.7,17.4 73.4,17.9 C73.1,18.4 72.6,18.7 72.1,18.7 C71.5,18.7 71.1,18.5 70.7,18.1 C70.6,18 70.3,17.6 70.2,16.8 C70.1,16.3 69.9,16.1 69.5,16.1 L67.6,16.1 C67.2,16.1 66.9,16.4 66.9,16.7 C66.9,16.7 67,17.4 67.1,18.3 C67.3,19.1 67.7,20 68.2,20.5 C69.1,21.4 70.3,21.8 71.9,21.8 C73.6,21.8 74.9,21.3 75.8,20.3 C76.7,19.3 77.1,17.7 77.1,15.5 C77.1,15 77.1,14.5 77,14 C77.4,13.6 77.3,13.1 77.1,12.7 Z"></path>
                            <path d="M93.7,0.6 L91.8,0.6 C91.4,0.6 91,0.9 90.9,1.2 L86.8,13 C86.7,13.2 86.7,13.3 86.6,13.3 C86.6,13.3 86.5,13.2 86.5,13 L86.5,1.3 C86.5,0.9 86.2,0.6 85.8,0.6 L83.9,0.6 C83.5,0.6 83.2,0.9 83.2,1.3 L83.2,21 C83.2,21.4 83.5,21.7 83.9,21.7 L85.7,21.7 C86.1,21.7 86.5,21.4 86.6,21.1 L90.7,9.2 C90.8,9 90.8,8.9 90.9,8.9 C90.9,8.9 90.9,9 90.9,9.2 L90.9,21 C90.9,21.4 91.2,21.7 91.6,21.7 L93.5,21.7 C93.9,21.7 94.2,21.4 94.2,21 L94.2,1.3 C94.3,0.9 94,0.6 93.7,0.6 Z"></path>
                            <path d="M109.9,0.6 L105.9,0.6 L105.7,0.6 L105.7,0.6 C105.7,0.6 105.7,0.6 105.7,0.6 C104,0.6 102.6,1.1 101.6,2.2 C100.6,3.3 100.1,4.8 100.1,6.9 C100.1,8.1 100.3,9 100.6,9.8 C101,10.6 101.6,11.2 102.6,11.6 C102.1,11.9 101.6,12.4 101.3,12.9 C101,13.5 100.8,14.1 100.6,14.8 L100,18 L99.5,20.9 C99.4,21.3 99.7,21.5 100,21.5 L102,21.5 C102.4,21.5 102.7,21.2 102.8,20.9 L103.3,18 L103.7,15.6 C103.9,14.6 104.2,13.8 104.6,13.4 C104.6,13.4 104.7,13.3 104.7,13.3 C105.2,12.9 105.9,12.7 105.9,12.7 C106.1,12.7 106.4,12.6 106.6,12.6 L106.8,12.6 C107,12.6 107.1,12.7 107.1,12.9 L107.1,20.9 C107.1,21.3 107.4,21.6 107.8,21.6 L109.8,21.6 C110.2,21.6 110.5,21.3 110.5,20.9 L110.5,11.4 L110.5,10.3 L110.5,1.1 C110.6,0.9 110.3,0.6 109.9,0.6 Z M107.3,9.3 C107.3,9.5 107.1,9.6 107,9.6 L105.9,9.6 L105.9,9.6 C105.2,9.6 104.6,9.4 104.1,9 C103.6,8.6 103.4,7.9 103.4,6.9 C103.4,5.9 103.6,5.2 104,4.6 C104.4,4 105,3.7 106,3.7 L106,3.7 L106,3.7 C106.2,3.7 106.3,3.7 106.4,3.7 L107,3.7 C107.2,3.7 107.3,3.8 107.3,4 L107.3,9.3 Z"></path>
                        </g>
                        <path d="M29.9,0.1 L21.3,0.1 C19,0.1 17,1.3 15.8,3.2 C14.6,1.3 12.5,0.1 10.3,0.1 L1.7,0.1 C1.2,0.1 0.7,0.5 0.7,1.1 L0.7,20.7 C0.7,23.3 2,25.4 4.2,26.6 L15.2,33.1 C15.4,33.2 15.5,33.2 15.7,33.2 C15.9,33.2 16,33.2 16.2,33.1 L27.4,27.1 C29.6,25.9 31,23.6 31,21.1 L31,1.1 C30.9,0.5 30.4,0.1 29.9,0.1 Z M16.7,6.4 C16.8,4 18.8,2.1 21.2,2.1 L28.8,2.1 L28.8,15.2 L21,15.2 C19.4,15.2 17.9,15.8 16.7,16.8 L16.7,6.7 C16.7,6.5 16.7,6.5 16.7,6.4 Z M21,17.1 L28.9,17.1 L28.9,19.3 L17.1,19.3 C17.9,18 19.4,17.1 21,17.1 Z M28.9,21.3 C28.8,23.3 27.6,24.7 26.4,25.3 L20.3,28.6 C19.2,27.3 17.5,26.6 15.8,26.6 C14.1,26.6 12.5,27.3 11.4,28.5 L5.2,24.8 C4.4,24.4 3,23.3 2.7,21.2 L28.9,21.2 L28.9,21.3 Z M2.6,15.1 L2.6,2.1 L10.2,2.1 C12.6,2.1 14.6,4 14.7,6.4 C14.7,6.5 14.7,6.6 14.7,6.6 L14.7,16.7 C13.5,15.7 12,15.1 10.4,15.1 L2.6,15.1 Z M14.4,19.3 L2.6,19.3 L2.6,17.1 L10.5,17.1 C12.1,17.1 13.6,18 14.4,19.3 Z M18.4,29.6 L15.7,31.1 L13.1,29.6 C13.8,29 14.8,28.6 15.7,28.6 C16.7,28.6 17.7,29 18.4,29.6 Z" id="Shape"></path>
                    </g>
                </g>
            </g>
        </g>
    </g>
</svg>